<svg xmlns="http://www.w3.org/2000/svg" viewBox="0 0 32 32">
  <!-- Pixel Art Candy Cane -->
  <!-- Curved top -->
  <rect fill="#ef4444" x="18" y="0" width="6" height="2"/>
  <rect fill="white" x="24" y="0" width="4" height="2"/>
  <rect fill="#ef4444" x="26" y="2" width="4" height="2"/>
  <rect fill="white" x="28" y="4" width="2" height="4"/>
  <rect fill="#ef4444" x="28" y="8" width="2" height="2"/>
  <rect fill="white" x="26" y="10" width="4" height="2"/>
  <rect fill="#ef4444" x="24" y="12" width="4" height="2"/>
  <!-- Straight part -->
  <rect fill="white" x="22" y="14" width="4" height="2"/>
  <rect fill="#ef4444" x="20" y="16" width="4" height="2"/>
  <rect fill="white" x="18" y="18" width="4" height="2"/>
  <rect fill="#ef4444" x="16" y="20" width="4" height="2"/>
  <rect fill="white" x="14" y="22" width="4" height="2"/>
  <rect fill="#ef4444" x="12" y="24" width="4" height="2"/>
  <rect fill="white" x="10" y="26" width="4" height="2"/>
  <rect fill="#ef4444" x="8" y="28" width="4" height="2"/>
  <rect fill="white" x="6" y="30" width="4" height="2"/>
</svg>
