<svg xmlns="http://www.w3.org/2000/svg" viewBox="0 0 32 32">
  <!-- Pixel Art Christmas Tree -->
  <rect fill="#165b33" x="14" y="2" width="4" height="2"/>
  <rect fill="#165b33" x="12" y="4" width="8" height="2"/>
  <rect fill="#165b33" x="10" y="6" width="12" height="2"/>
  <rect fill="#165b33" x="12" y="8" width="8" height="2"/>
  <rect fill="#165b33" x="8" y="10" width="16" height="2"/>
  <rect fill="#165b33" x="6" y="12" width="20" height="2"/>
  <rect fill="#165b33" x="10" y="14" width="12" height="2"/>
  <rect fill="#165b33" x="4" y="16" width="24" height="2"/>
  <rect fill="#165b33" x="2" y="18" width="28" height="2"/>
  <!-- Trunk -->
  <rect fill="#8B4513" x="12" y="20" width="8" height="4"/>
  <rect fill="#8B4513" x="10" y="24" width="12" height="2"/>
  <!-- Star -->
  <rect fill="#ffd700" x="14" y="0" width="4" height="2"/>
  <!-- Ornaments -->
  <rect fill="#ef4444" x="14" y="6" width="2" height="2"/>
  <rect fill="#3b82f6" x="10" y="10" width="2" height="2"/>
  <rect fill="#fbbf24" x="18" y="12" width="2" height="2"/>
  <rect fill="#ec4899" x="8" y="16" width="2" height="2"/>
  <rect fill="#22c55e" x="20" y="18" width="2" height="2"/>
</svg>
