<svg xmlns="http://www.w3.org/2000/svg" viewBox="0 0 32 32">
  <!-- Pixel Art Santa -->
  <!-- Hat -->
  <rect fill="#ef4444" x="8" y="0" width="16" height="2"/>
  <rect fill="#ef4444" x="6" y="2" width="18" height="2"/>
  <rect fill="#ef4444" x="4" y="4" width="20" height="4"/>
  <rect fill="white" x="24" y="0" width="4" height="4"/>
  <!-- Hat trim -->
  <rect fill="white" x="2" y="8" width="26" height="2"/>
  <!-- Face -->
  <rect fill="#fcd5b8" x="6" y="10" width="18" height="8"/>
  <!-- Eyes -->
  <rect fill="#333" x="10" y="12" width="2" height="2"/>
  <rect fill="#333" x="18" y="12" width="2" height="2"/>
  <!-- Nose -->
  <rect fill="#ef9a9a" x="14" y="14" width="4" height="2"/>
  <!-- Cheeks -->
  <rect fill="#ffcdd2" x="8" y="14" width="2" height="2"/>
  <rect fill="#ffcdd2" x="20" y="14" width="2" height="2"/>
  <!-- Beard -->
  <rect fill="white" x="4" y="18" width="24" height="2"/>
  <rect fill="white" x="6" y="20" width="20" height="2"/>
  <rect fill="white" x="8" y="22" width="16" height="2"/>
  <rect fill="white" x="10" y="24" width="12" height="2"/>
  <rect fill="white" x="12" y="26" width="8" height="2"/>
  <!-- Mustache -->
  <rect fill="white" x="8" y="16" width="6" height="2"/>
  <rect fill="white" x="18" y="16" width="6" height="2"/>
</svg>
