<svg xmlns="http://www.w3.org/2000/svg" viewBox="0 0 32 32">
  <!-- Pixel Art Christmas Wreath -->
  <!-- Outer ring -->
  <rect fill="#165b33" x="10" y="0" width="12" height="2"/>
  <rect fill="#165b33" x="6" y="2" width="6" height="2"/>
  <rect fill="#165b33" x="20" y="2" width="6" height="2"/>
  <rect fill="#165b33" x="4" y="4" width="4" height="2"/>
  <rect fill="#165b33" x="24" y="4" width="4" height="2"/>
  <rect fill="#165b33" x="2" y="6" width="4" height="4"/>
  <rect fill="#165b33" x="26" y="6" width="4" height="4"/>
  <rect fill="#165b33" x="0" y="10" width="4" height="12"/>
  <rect fill="#165b33" x="28" y="10" width="4" height="12"/>
  <rect fill="#165b33" x="2" y="22" width="4" height="4"/>
  <rect fill="#165b33" x="26" y="22" width="4" height="4"/>
  <rect fill="#165b33" x="4" y="26" width="4" height="2"/>
  <rect fill="#165b33" x="24" y="26" width="4" height="2"/>
  <rect fill="#165b33" x="6" y="28" width="6" height="2"/>
  <rect fill="#165b33" x="20" y="28" width="6" height="2"/>
  <rect fill="#165b33" x="10" y="30" width="12" height="2"/>
  <!-- Berries -->
  <rect fill="#ef4444" x="14" y="2" width="4" height="2"/>
  <rect fill="#ef4444" x="12" y="4" width="2" height="2"/>
  <rect fill="#ef4444" x="18" y="4" width="2" height="2"/>
  <!-- Bow -->
  <rect fill="#ef4444" x="8" y="26" width="6" height="4"/>
  <rect fill="#ef4444" x="18" y="26" width="6" height="4"/>
  <rect fill="#c41e3a" x="12" y="28" width="8" height="2"/>
  <rect fill="#ef4444" x="14" y="30" width="4" height="2"/>
</svg>
